# xmcd
# 
# Track frame offsets:
#     150
#     11393
#     21977
#     32622
#     44719
#     55440
#     65980
#     76666
#     87130
#     98754
#     110753
#     121927
#     130822
#     140288
#     151393
#     161225
#     170142
#     180932
#     191731
#     202483
#     212084
#     221468
#     232797
#     242980
#     254172
#     265628
#     275394
#     284675
#     294152
#     303656
#     314801
#     326881
#     339952
# 
# Disc length: 4684
# 
# Revision: 2
# Processed by: cddbd v1.5.2PL0 Copyright (c) Steve Scherf et al.
# Submitted via: fre:ac v1.0.17
# 
DISCID=fd124a21
DTITLE=Piano Red Aka Dr. Feelgood - Piano Red Rocks [Bear]
DYEAR=0
DGENRE=Blues
TTITLE0=Rockin' With Red
TTITLE1=Jumpin' The Boogie
TTITLE2=Red's Boogie
TTITLE3=Right String But The Wrong Yo Yo
TTITLE4=Diggin' The Boogie
TTITLE5=Layin' The Boogie
TTITLE6=The Sales Tax Boogie
TTITLE7=She Walks Right In
TTITLE8=She's Dynamite
TTITLE9=Everybody's Boogie
TTITLE10=Decatur Street Boogie
TTITLE11=She Knocks Me Out
TTITLE12=Chitlin's Hop
TTITLE13=I Ain't Fattenin' Frogs For Snakes
TTITLE14=Big Rock Joe From Kokomo
TTITLE15=Jump Man Jump
TTITLE16=Woo-Ee
TTITLE17=Rock Baby
TTITLE18=Wild Fire
TTITLE19=Rock And Roll Boogie
TTITLE20=Boogie Re-Bop
TTITLE21=I've Been Rockin'
TTITLE22=Doctor Feel-Good
TTITLE23=I Ain't Gonna Be A Lowdown Dog No More
TTITLE24=What's Up Doc
TTITLE25=Bald-Headed Lena
TTITLE26=Blang Dong
TTITLE27=I'm Gonna Rock Some More
TTITLE28=Jumping The Boogie aka Jump
TTITLE29=The Double Twist
TTITLE30=I Need You
TTITLE31=Can't Wait No Longer
TTITLE32=Rock Me Aka Rock Rock Rock
EXTD=
EXTT0=
EXTT1=
EXTT2=
EXTT3=
EXTT4=
EXTT5=
EXTT6=
EXTT7=
EXTT8=
EXTT9=
EXTT10=
EXTT11=
EXTT12=
EXTT13=
EXTT14=
EXTT15=
EXTT16=
EXTT17=
EXTT18=
EXTT19=
EXTT20=
EXTT21=
EXTT22=
EXTT23=
EXTT24=
EXTT25=
EXTT26=
EXTT27=
EXTT28=
EXTT29=
EXTT30=
EXTT31=
EXTT32=
PLAYORDER=
